<svg class="animated" id="freepik_stories-sneezing" xmlns="http://www.w3.org/2000/svg" viewBox="0 0 500 500" version="1.1" xmlns:xlink="http://www.w3.org/1999/xlink" xmlns:svgjs="http://svgjs.com/svgjs"><g id="freepik--background-simple--inject-164" class="animable" style="transform-origin: 250.717px 256.353px;"><path d="M477.11,240.1c6.13-53.85-12.08-107.93-50.3-146.35-18.8-18.9-44.51-36.7-78.66-45.3-95.77-24.12-157.85-2-188.88,56.66S39.2,153.68,25,254.87,79.67,467.36,196.37,473.43s101.68-52,165.52-76.94C410.72,377.43,468,320.47,477.11,240.1Z" style="fill: rgb(197, 63, 63); transform-origin: 250.717px 256.353px;" id="el5oy52iw5cqe" class="animable"></path><g id="elnb5xcmg2s0p"><path d="M477.11,240.1c6.13-53.85-12.08-107.93-50.3-146.35-18.8-18.9-44.51-36.7-78.66-45.3-95.77-24.12-157.85-2-188.88,56.66S39.2,153.68,25,254.87,79.67,467.36,196.37,473.43s101.68-52,165.52-76.94C410.72,377.43,468,320.47,477.11,240.1Z" style="fill: rgb(255, 255, 255); opacity: 0.7; transform-origin: 250.717px 256.353px;" class="animable"></path></g></g><g id="freepik--Plant--inject-164" class="animable" style="transform-origin: 94.7056px 350.046px;"><path d="M91.34,426.14c0,1.23.14,2.45.22,3.67.19,2.45.34,4.89.56,7.33.31,3.24.75,6.48,1.22,9.71h.89c0-.84,0-1.68-.07-2.52-.07-2.44-.28-4.86-.25-7.3s0-4.86-.08-7.29l-.06-3.65.06-3.64,0-7.29.2-7.27.08-3.65c0-1.21.13-2.42.2-3.63l.45-7.28a257.68,257.68,0,0,1,4.12-28.86,168.79,168.79,0,0,1,7.88-28.09h0a.13.13,0,0,0-.06-.17.12.12,0,0,0-.17.07,169.13,169.13,0,0,0-8.91,27.91,259.79,259.79,0,0,0-4.91,28.94l-.7,7.32c-.11,1.22-.24,2.43-.33,3.66l-.19,3.67c-.11,2.44-.26,4.89-.33,7.34l.07,7.35Z" style="fill: rgb(38, 50, 56); transform-origin: 98.9658px 391.523px;" id="el232dtuinr53" class="animable"></path><path d="M99.2,446.85c.53-5.23.91-10.46,1.27-15.68.45-6.36.51-12.73.93-19.1a170,170,0,0,1,2.27-18.93,172.85,172.85,0,0,1,4.16-18.67.13.13,0,0,0-.24-.08,170.46,170.46,0,0,0-8.25,37.51c-.64,6.37-1.35,12.76-1.44,19.16-.08,5.26,0,10.53.37,15.79Z" style="fill: rgb(38, 50, 56); transform-origin: 102.851px 410.589px;" id="elocx3tmqz19" class="animable"></path><path d="M104.31,446.85l1-11.33c.65-6.14,1-12.31,2.36-18.31.16-.75.38-1.48.57-2.22a17.68,17.68,0,0,1,.65-2.18l.75-2.15,1-2a55,55,0,0,1,5.06-7.68,63.61,63.61,0,0,1,13.26-12.9h0a.13.13,0,0,0,0-.17.13.13,0,0,0-.18,0,64.7,64.7,0,0,0-14.12,12.31,57.08,57.08,0,0,0-5.52,7.68L108,410l-.89,2.22a20.75,20.75,0,0,0-.77,2.26c-.23.75-.49,1.51-.69,2.27a90.22,90.22,0,0,0-2.92,18.63c-.16,3.84-.17,7.68,0,11.51Z" style="fill: rgb(38, 50, 56); transform-origin: 115.799px 417.382px;" id="elpwkezc3ysf" class="animable"></path><path d="M107.25,446.85h1c.18-1,.32-1.93.45-2.89.26-1.63.52-3.26.71-4.88s.45-3.24.58-4.87.35-3.25.7-4.84a43.47,43.47,0,0,1,2.75-9.37,20.65,20.65,0,0,1,5.39-8.05l0,0a.14.14,0,0,0,0-.17.14.14,0,0,0-.18,0c-2.88,1.85-4.8,4.78-6.42,7.71a45.88,45.88,0,0,0-3.6,9.46c-.25.81-.45,1.63-.63,2.45l-.58,2.47a42.48,42.48,0,0,0-.62,5c0,1.68-.07,3.36,0,5Q107,445.37,107.25,446.85Z" style="fill: rgb(38, 50, 56); transform-origin: 112.814px 429.299px;" id="el1okv6ayjjm9" class="animable"></path><path d="M83.74,406.06c1,8.18,1.79,16.37,2.82,24.54l2,16.25H90c0-1.38-.07-2.76-.09-4.14-.08-4.14-.43-8.26-.74-12.38-.7-8.25-2.06-16.41-3.34-24.56s-2.71-16.3-4.2-24.41-3.16-16.21-4.91-24.27a.13.13,0,0,0-.15-.1.13.13,0,0,0-.11.15c1.42,8.12,2.69,16.27,3.9,24.43S82.71,397.88,83.74,406.06Z" style="fill: rgb(38, 50, 56); transform-origin: 83.2291px 401.919px;" id="elgvp690mgq0u" class="animable"></path><path d="M63.3,375.57a36.41,36.41,0,0,1,5.44,8.07c.71,1.46,1.47,2.9,2.09,4.42l1,2.24.86,2.29a132.88,132.88,0,0,1,5.49,18.75c.76,3.17,1.25,6.41,1.87,9.6l.77,4.83c.28,1.61.62,3.21.85,4.82.51,3.23,1.11,6.44,1.67,9.67.34,2.19.74,4.39,1.16,6.59h.84c0-2.27-.09-4.54-.2-6.8-.19-3.29-.58-6.56-.93-9.84s-1-6.51-1.66-9.75l-1.16-4.81c-.38-1.61-.74-3.21-1.21-4.8a134.83,134.83,0,0,0-6.3-18.74l-1-2.27-1.1-2.22c-.7-1.5-1.55-2.92-2.35-4.36a36.58,36.58,0,0,0-5.95-7.89.14.14,0,0,0-.17,0,.12.12,0,0,0,0,.18Z" style="fill: rgb(38, 50, 56); transform-origin: 74.3047px 411.096px;" id="eldhs3ba1ximf" class="animable"></path><path d="M71,418.43c1.67,4.22,3.18,8.49,4.45,12.84s2.21,8.77,3.36,13.13c.23.81.44,1.63.66,2.45H81.8c-.16-1-.33-2-.53-3a84.09,84.09,0,0,0-3.92-13.2c-1.53-4.33-3.29-8.56-5.22-12.71a113.9,113.9,0,0,0-6.56-12,.15.15,0,0,0-.18,0,.13.13,0,0,0,0,.18A112.38,112.38,0,0,1,71,418.43Z" style="fill: rgb(38, 50, 56); transform-origin: 73.5769px 426.38px;" id="elnchs2pm2pea" class="animable"></path><path d="M60.92,426.85a18.87,18.87,0,0,1,6.32,4.92,29.86,29.86,0,0,1,4.41,6.66c1.25,2.37,1.89,5,3,7.43.13.33.26.66.38,1h2.47c-.13-.61-.26-1.21-.41-1.81a29.25,29.25,0,0,0-3.63-7.61,31.86,31.86,0,0,0-5.28-6.57,24.82,24.82,0,0,0-3.36-2.53A13.77,13.77,0,0,0,61,426.61a.12.12,0,0,0-.15.07.13.13,0,0,0,.06.17Z" style="fill: rgb(38, 50, 56); transform-origin: 69.1692px 436.732px;" id="ely463gir24z" class="animable"></path><path d="M77.58,368.89S64.07,365.77,61,351.22s6.93-8.31-2.07-31.17S52,292,55.07,285.42s4.85-4.51,7.62,4.15S75.5,311.74,79.31,337,77.58,368.89,77.58,368.89Z" style="fill: rgb(197, 63, 63); transform-origin: 66.548px 325.217px;" id="elccsv6jwm61d" class="animable"></path><path d="M104.25,344.3s-9-3.12-9.35-20.09,6.58-13.51,7.62-34.64,2.42-36,6.23-36.36,13.86,10.39,17.32,33.94-4.5,39.14-11.43,46.06S104.25,344.3,104.25,344.3Z" style="fill: rgb(197, 63, 63); transform-origin: 110.897px 298.751px;" id="elayt4vw0qzwg" class="animable"></path><path d="M72.73,389.32S70.65,376.86,66.5,371s-13.17-11.09-19-22.52-12.47-17-12.13-.69S42.94,372.35,52,377.89,72.73,389.32,72.73,389.32Z" style="fill: rgb(197, 63, 63); transform-origin: 54.0437px 363.461px;" id="elmcb4bhw652" class="animable"></path><path d="M68.92,410.8s-8.31-15.93-20.43-27.71-21.83-17.66-18.36-11.78,7.62,5.55,13.51,15.94,4.15,18,12.47,23.89S68.92,410.8,68.92,410.8Z" style="fill: rgb(197, 63, 63); transform-origin: 49.169px 391.338px;" id="elgrcwxb8kiv7" class="animable"></path><path d="M67.88,431.23c-.34-1-.69-8.66-12.47-14.89s-22.86-3.81-21.47-.69S42.6,424,49.87,427.08,67.88,431.23,67.88,431.23Z" style="fill: rgb(197, 63, 63); transform-origin: 50.8508px 421.845px;" id="el25ab5gqwop8" class="animable"></path><path d="M103.56,390s-5.2-6.58-2.43-20.44,9-10.39,15.93-17.66,5.55-8.32,12.47-15.93,13.16-11.78,15.94-8.66-1.39,12.81-5.55,18.35-10.73,8.32-13.85,15.24-1.73,18-9.7,23.21S103.56,390,103.56,390Z" style="fill: rgb(197, 63, 63); transform-origin: 123.344px 358.134px;" id="el5n8ec1n8qr6" class="animable"></path><path d="M120.87,393.83s12.47-14.2,21.48-24.59,12.47-18.36,12.81-11.43,3.12,12.46-4.15,21.47S120.87,393.83,120.87,393.83Z" style="fill: rgb(197, 63, 63); transform-origin: 138.417px 374.518px;" id="elvxb8qho8h5h" class="animable"></path><path d="M114.29,416.69s-.34-5.55,19.4-18.36,28.05-15.24,26-10S148.93,398.68,139.58,408,114.29,416.69,114.29,416.69Z" style="fill: rgb(197, 63, 63); transform-origin: 137.141px 401.222px;" id="elpdafa3tcq0c" class="animable"></path><path d="M78.4,367.41s-4.63-24.84-9.48-42.51-8-28.4-8-28.4" style="fill: none; stroke: rgb(38, 50, 56); stroke-miterlimit: 10; transform-origin: 69.66px 331.955px;" id="elvw9t05k4dn" class="animable"></path><path d="M103.45,344.56s8.42-26.93,11.19-43.21-.35-28.4-1.73-35.68" style="fill: none; stroke: rgb(38, 50, 56); stroke-miterlimit: 10; transform-origin: 109.6px 305.115px;" id="elilazb1dlenc" class="animable"></path><path d="M71.64,388.8a130.86,130.86,0,0,0-12.76-18.18c-7.62-9-13.51-13.85-17-22.51" style="fill: none; stroke: rgb(38, 50, 56); stroke-miterlimit: 10; transform-origin: 56.76px 368.455px;" id="elze3kwrohucf" class="animable"></path><path d="M103.56,390s2.77-16.63,9.35-25.29,19.74-22.16,24.94-30.82" style="fill: none; stroke: rgb(38, 50, 56); stroke-miterlimit: 10; transform-origin: 120.705px 361.945px;" id="el2hxbbz8ddsj" class="animable"></path><path d="M67.07,430.86s-11.66-7.59-20-11.75" style="fill: none; stroke: rgb(38, 50, 56); stroke-miterlimit: 10; transform-origin: 57.07px 424.985px;" id="elu4lcfdwnzo" class="animable"></path></g><g id="freepik--Window--inject-164" class="animable" style="transform-origin: 361.075px 239.08px;"><g id="el94j8xmh94cm"><g style="opacity: 0.3; transform-origin: 361.075px 239.08px;" class="animable"><rect x="249.18" y="52.02" width="108.93" height="173.53" style="fill: none; stroke: rgb(0, 0, 0); stroke-miterlimit: 10; transform-origin: 303.645px 138.785px;" id="elcmw3hmlxr2s" class="animable"></rect><rect x="365.1" y="52.02" width="108.93" height="173.53" style="fill: none; stroke: rgb(0, 0, 0); stroke-miterlimit: 10; transform-origin: 419.565px 138.785px;" id="el9kgxsmiwpcs" class="animable"></rect><line x1="469.09" y1="69.12" x2="385.4" y2="152.81" style="fill: none; stroke: rgb(0, 0, 0); stroke-miterlimit: 10; transform-origin: 427.245px 110.965px;" id="elp523hi0oxvb" class="animable"></line><line x1="418.5" y1="132.2" x2="406.63" y2="144.07" style="fill: none; stroke: rgb(0, 0, 0); stroke-miterlimit: 10; transform-origin: 412.565px 138.135px;" id="el4od62n7ja53" class="animable"></line><line x1="402.88" y1="147.82" x2="377.9" y2="172.8" style="fill: none; stroke: rgb(0, 0, 0); stroke-miterlimit: 10; transform-origin: 390.39px 160.31px;" id="elxd0i9701ih" class="animable"></line><rect x="249.18" y="231.49" width="108.93" height="173.53" style="fill: none; stroke: rgb(0, 0, 0); stroke-miterlimit: 10; transform-origin: 303.645px 318.255px;" id="eluszo9fdpkl" class="animable"></rect><rect x="365.1" y="231.49" width="108.93" height="173.53" style="fill: none; stroke: rgb(0, 0, 0); stroke-miterlimit: 10; transform-origin: 419.565px 318.255px;" id="elj4fpg1rdkul" class="animable"></rect><line x1="350.42" y1="241.5" x2="266.72" y2="325.2" style="fill: none; stroke: rgb(0, 0, 0); stroke-miterlimit: 10; transform-origin: 308.57px 283.35px;" id="elz09pi04ttf" class="animable"></line><line x1="299.83" y1="304.59" x2="287.96" y2="316.45" style="fill: none; stroke: rgb(0, 0, 0); stroke-miterlimit: 10; transform-origin: 293.895px 310.52px;" id="elo3pkx8exjf" class="animable"></line><line x1="284.21" y1="320.2" x2="259.23" y2="345.19" style="fill: none; stroke: rgb(0, 0, 0); stroke-miterlimit: 10; transform-origin: 271.72px 332.695px;" id="el21pwmpig8jy" class="animable"></line><rect x="242.79" y="45.16" width="236.57" height="387.84" style="fill: none; stroke: rgb(0, 0, 0); stroke-miterlimit: 10; transform-origin: 361.075px 239.08px;" id="elno9e6ne95j" class="animable"></rect><line x1="479.08" y1="418.35" x2="243.46" y2="418.35" style="fill: none; stroke: rgb(0, 0, 0); stroke-miterlimit: 10; transform-origin: 361.27px 418.35px;" id="elpihmlirzgfj" class="animable"></line></g></g></g><g id="freepik--Pictures--inject-164" class="animable" style="transform-origin: 122.3px 118.98px;"><g id="elm8z5413948"><g style="opacity: 0.3; transform-origin: 89.925px 118.98px;" class="animable"><rect x="41.72" y="57.83" width="96.41" height="122.3" style="fill: none; stroke: rgb(0, 0, 0); stroke-miterlimit: 10; transform-origin: 89.925px 118.98px;" id="elxizqndzu31" class="animable"></rect><rect x="48.07" y="65.88" width="83.72" height="106.2" style="fill: none; stroke: rgb(0, 0, 0); stroke-miterlimit: 10; transform-origin: 89.93px 118.98px;" id="el5av89hkripa" class="animable"></rect><rect x="72.95" y="97.45" width="33.95" height="43.07" style="fill: none; stroke: rgb(0, 0, 0); stroke-miterlimit: 10; transform-origin: 89.925px 118.985px;" id="elzeculnkyo6r" class="animable"></rect></g></g><g id="ellall0mwrwx"><g style="opacity: 0.3; transform-origin: 178.215px 89.115px;" class="animable"><rect x="153.55" y="57.83" width="49.33" height="62.57" style="fill: none; stroke: rgb(0, 0, 0); stroke-miterlimit: 10; transform-origin: 178.215px 89.115px;" id="el67m240zhbvj" class="animable"></rect><rect x="156.8" y="61.95" width="42.83" height="54.33" style="fill: none; stroke: rgb(0, 0, 0); stroke-miterlimit: 10; transform-origin: 178.215px 89.115px;" id="elo7dabmtku1b" class="animable"></rect><rect x="169.53" y="78.1" width="17.37" height="22.03" style="fill: none; stroke: rgb(0, 0, 0); stroke-miterlimit: 10; transform-origin: 178.215px 89.115px;" id="el88z0u7ycuep" class="animable"></rect></g></g></g><g id="freepik--Character--inject-164" class="animable animator-active" style="transform-origin: 275.104px 278.442px;"><path d="M369.74,446.85l-2.09-60.18s-21,8-51.81,11.41-64.76-15.41-64.76-15.41l-8.87,64.18Z" style="fill: rgb(38, 50, 56); stroke: rgb(38, 50, 56); stroke-miterlimit: 10; transform-origin: 305.975px 414.76px;" id="elujivv9i5aj" class="animable"></path><path d="M257.66,407.68a111.67,111.67,0,0,0,9.14-10.83" style="fill: none; stroke: rgb(92, 92, 92); stroke-miterlimit: 10; transform-origin: 262.23px 402.265px;" id="el5ush2rxx0o3" class="animable"></path><path d="M246.76,418.44s3.5-3.17,7.87-7.61" style="fill: none; stroke: rgb(92, 92, 92); stroke-miterlimit: 10; transform-origin: 250.695px 414.635px;" id="elv1gvvcha3v" class="animable"></path><path d="M294.56,404.25s-1.23,31.77-.31,36.39" style="fill: none; stroke: rgb(92, 92, 92); stroke-miterlimit: 10; transform-origin: 294.234px 422.445px;" id="elknwcuxjczcm" class="animable"></path><path d="M302.89,407s-1.55,27.14-.31,32.38" style="fill: none; stroke: rgb(92, 92, 92); stroke-miterlimit: 10; transform-origin: 302.495px 423.19px;" id="el26glc7ym24k" class="animable"></path><path d="M362.68,429a14.93,14.93,0,0,0,4.66,3" style="fill: none; stroke: rgb(92, 92, 92); stroke-miterlimit: 10; transform-origin: 365.01px 430.5px;" id="el034eoq7264zq" class="animable"></path><path d="M344.83,399.93s6.2,15.27,13.92,24.89" style="fill: none; stroke: rgb(92, 92, 92); stroke-miterlimit: 10; transform-origin: 351.79px 412.375px;" id="el080j4k7czx0j" class="animable"></path><path d="M248.92,375s-.93,10.48.31,12.33,30.53,15.11,56.43,15.42,59.83-10.79,61.68-12.33,2.47-2.78,2.47-6.17S368.57,370,368.57,370s-2.46,5.24-25,9.25-55.2,2.47-72.47-1.23S248.92,375,248.92,375Z" style="fill: rgb(197, 63, 63); stroke: rgb(38, 50, 56); stroke-miterlimit: 10; transform-origin: 309.198px 386.378px;" id="elv63a5xre0w" class="animable"></path><path d="M391.12,315.63c-.4,2.37-17,2-17,2L371,343.66s0,18.17-1.58,24.48S363.48,378,356,382s-30.8,6.71-51.73,7.9-59.62-13-59.62-13,6.71-27.24,8.69-35.93-12.64-65.15-12.64-65.15-6.31,39.48-7.5,45.8-7.5,26.46-18.56,20.93c-6.05-3-13.18-11.43-18.51-18.79-4.4-6.07-7.58-11.44-7.94-12.52-.23-.68,1-6,3-13.77,5-19.29,15-53.66,19.46-69.43,6.32-22.11,7.51-32.37,17-33.56s26.46,11.06,26.46,11.06c30,2,53.7-5.92,60.41-9.08s17-6.72,27.24-11.06,18.95-2.76,27.64,9.08,16.19,42.25,22.11,69.49A120.9,120.9,0,0,1,391.12,315.63Z" style="fill: rgb(197, 63, 63); stroke: rgb(38, 50, 56); stroke-miterlimit: 10; transform-origin: 291.136px 286.582px;" id="eltcn9jfcfskq" class="animable"></path><path d="M209.5,198.17s-8.09,18.39-9.57,29.43" style="fill: none; stroke: rgb(38, 50, 56); stroke-miterlimit: 10; transform-origin: 204.715px 212.885px;" id="el791nmkw42js" class="animable"></path><path d="M195.52,215.09s-3.68,14-4.41,21.34" style="fill: none; stroke: rgb(38, 50, 56); stroke-miterlimit: 10; transform-origin: 193.315px 225.76px;" id="el7eqx2x817pj" class="animable"></path><path d="M382.39,199.64s9.57,14.72,9.57,28" style="fill: none; stroke: rgb(38, 50, 56); stroke-miterlimit: 10; transform-origin: 387.175px 213.64px;" id="eln9whwvkane" class="animable"></path><path d="M394.16,210.68s5.15,16.18,5.15,21.33" style="fill: none; stroke: rgb(38, 50, 56); stroke-miterlimit: 10; transform-origin: 396.735px 221.345px;" id="elvmhguf8kymc" class="animable"></path><path d="M220.89,250a47.09,47.09,0,0,1-6.47-8.25" style="fill: none; stroke: rgb(38, 50, 56); stroke-miterlimit: 10; transform-origin: 217.655px 245.875px;" id="el8vn24flune8" class="animable"></path><path d="M237.27,263.77a119.92,119.92,0,0,1-12.38-9.85" style="fill: none; stroke: rgb(38, 50, 56); stroke-miterlimit: 10; transform-origin: 231.08px 258.845px;" id="elbkqrvk9fd0w" class="animable"></path><path d="M214.13,226.24a87.62,87.62,0,0,0,12.42,13" style="fill: none; stroke: rgb(38, 50, 56); stroke-miterlimit: 10; transform-origin: 220.34px 232.74px;" id="elmn57h9v1nkf" class="animable"></path><path d="M226.73,294.25a14.4,14.4,0,0,1,5.64,2.47" style="fill: none; stroke: rgb(38, 50, 56); stroke-miterlimit: 10; transform-origin: 229.55px 295.485px;" id="el8xd3i7y7zih" class="animable"></path><path d="M212.84,293.84a47.49,47.49,0,0,1,10.89-.11" style="fill: none; stroke: rgb(38, 50, 56); stroke-miterlimit: 10; transform-origin: 218.285px 293.655px;" id="el8qh67e13ife" class="animable"></path><path d="M213.6,291.55s13.41-4.22,19.53-2.49" style="fill: none; stroke: rgb(38, 50, 56); stroke-miterlimit: 10; transform-origin: 223.365px 290.097px;" id="elzgobcmdopxc" class="animable"></path><path d="M256.32,342.57s5.86,16.66,10.48,23.44" style="fill: none; stroke: rgb(38, 50, 56); stroke-miterlimit: 10; transform-origin: 261.56px 354.29px;" id="elvwwmex1e2t" class="animable"></path><path d="M318.52,370.17a47.17,47.17,0,0,0,7.8,4.17" style="fill: none; stroke: rgb(38, 50, 56); stroke-miterlimit: 10; transform-origin: 322.42px 372.255px;" id="elnmzv2g8z4qq" class="animable"></path><path d="M266.19,324.69s27,27.35,47,41.86" style="fill: none; stroke: rgb(38, 50, 56); stroke-miterlimit: 10; transform-origin: 289.69px 345.62px;" id="elebez8grbjnk" class="animable"></path><path d="M219.07,308.38c0,9.52-7,17.24-15.73,17.24a14.55,14.55,0,0,1-7.23-1.93c-4.4-6.07-7.58-11.44-7.94-12.52-.23-.68,1-6,3-13.77a15.21,15.21,0,0,1,12.13-6.26C212,291.14,219.07,298.86,219.07,308.38Z" style="fill: none; stroke: rgb(38, 50, 56); stroke-miterlimit: 10; transform-origin: 203.606px 308.38px;" id="elwhi3xgba8u" class="animable"></path><ellipse cx="201.72" cy="305.39" rx="14.11" ry="14.25" style="fill: rgb(255, 255, 255); stroke: rgb(38, 50, 56); stroke-miterlimit: 10; transform-origin: 201.72px 305.39px;" id="elhg6af478v8" class="animable"></ellipse><path d="M279,237.84s1.58,11.45,8.69,9.08,25.17-20.67,25.81-37.78S279,237.84,279,237.84Z" style="fill: rgb(255, 255, 255); stroke: rgb(38, 50, 56); stroke-miterlimit: 10; transform-origin: 296.254px 226.278px;" id="el0a3gvndvpwce" class="animable"></path><path d="M243.17,173.69s-2.27,6.3-1,10.58,6.05,10.84,6.05,10.84l-1-23.18S245.19,168.9,243.17,173.69Z" style="fill: rgb(255, 255, 255); stroke: rgb(38, 50, 56); stroke-miterlimit: 10; transform-origin: 245.002px 183.047px;" id="elvegt5uv89hq" class="animable"></path><path d="M242.16,153.28s-5.29,11.34-4.28,14.87,8.82,9.57,8.82,9.57l-.4-23.43Z" style="fill: rgb(38, 50, 56); stroke: rgb(38, 50, 56); stroke-miterlimit: 10; transform-origin: 242.226px 165.5px;" id="elt7dx96tv6hc" class="animable"></path><path d="M244.85,162.32s.58,23.27,2,28.21,5.82,23,7.27,24.72,13.67,22.69,15.13,23.85,10.47,4.65,14.54,2.91,15.7-14.54,20.94-19.78,7.27-9,8.72-13.09a63.71,63.71,0,0,0,2.33-9.3s8.43-5.82,10.47-13.67,0-12.51-2-13.38a23.44,23.44,0,0,0-3.2-1.16l-5.23-7.57s-15.12-14.54-26.76-11.92-18.9,8.14-26.17,9-16.58-2.33-16.58-2.33Z" style="fill: rgb(255, 255, 255); stroke: rgb(38, 50, 56); stroke-miterlimit: 10; transform-origin: 285.973px 197.156px;" id="elrejktn4ga7" class="animable"></path><path d="M269.57,205.94s-2.91,5.82-1.46,8.15,4.95,2,4.95,2,.87-2,2.32-2,.88,2,.88,2,2.61.59,3.78-1.45,0-3.49-1.75-3.78" style="fill: none; stroke: rgb(38, 50, 56); stroke-miterlimit: 10; transform-origin: 274.108px 211.055px;" id="elmrscfvznzhs" class="animable"></path><path d="M266.37,192.57s3.49,5.52,3.49,8.72" style="fill: none; stroke: rgb(38, 50, 56); stroke-miterlimit: 10; transform-origin: 268.115px 196.93px;" id="elrv3jl41jz9c" class="animable"></path><path d="M267.87,211s-1.58,1.75-1.23,3a2.64,2.64,0,0,0,1.93,2.1" style="fill: none; stroke: rgb(38, 50, 56); stroke-miterlimit: 10; transform-origin: 267.58px 213.55px;" id="el28annhdsl8p" class="animable"></path><path d="M294.29,197.32a8,8,0,0,0-6.47-2.8c-4.2.17-9.8,3.5-7.7,4.2s7.52-2.1,10-1.58S294.47,198.37,294.29,197.32Z" style="fill: rgb(38, 50, 56); transform-origin: 286.983px 196.672px;" id="el5tevhaza18" class="animable"></path><path d="M251.32,197.94a7.84,7.84,0,0,1,6.28-2.72c4.07.17,9.49,3.41,7.46,4.09s-7.29-2.05-9.67-1.54S251.16,199,251.32,197.94Z" style="fill: rgb(38, 50, 56); transform-origin: 258.405px 197.316px;" id="el55dvvtp0s26" class="animable"></path><path d="M276.79,192.24s9.45-8.22,18.38-5.6" style="fill: none; stroke: rgb(38, 50, 56); stroke-miterlimit: 10; transform-origin: 285.98px 189.182px;" id="elp9izys6lyt9" class="animable"></path><path d="M263.67,191.54s-8.05-4.55-10.5-4.2a5.68,5.68,0,0,0-3.67,2.1" style="fill: none; stroke: rgb(38, 50, 56); stroke-miterlimit: 10; transform-origin: 256.585px 189.43px;" id="elnx4m6lnwzum" class="animable"></path><path d="M272.94,192.77a1.46,1.46,0,0,1-1.22-1.75c.17-1.58,2.1-5.25,2.1-5.25" style="fill: none; stroke: rgb(38, 50, 56); stroke-miterlimit: 10; transform-origin: 272.754px 189.27px;" id="elevztrm7n70w" class="animable"></path><path d="M272.81,227.19c.94,1.24.94,2.81,0,3.51s-2.43.25-3.37-1-.93-2.82,0-3.52S271.88,225.94,272.81,227.19Z" style="fill: rgb(38, 50, 56); transform-origin: 271.127px 228.441px;" id="elraf9fsbdjb" class="animable"></path><path d="M324,141.09c-3.78-14.83-9.59-25.6-27.34-29.67s-23,2-27.62,3.2-4.08-2.91-10.18,0c0,0-7.86,3.78-9,8.44s1.45,10.47-.58,11.63-3.78-4.65-9.6-4.07-16.29,8.43-13.09,18.32a17.31,17.31,0,0,0,11.42,11.57l.22.36s16.57,7.56,26.46,10.76,18.62-2,20.94-6.11c5.53-6.4,17.16-4.07,13.67.58s-1.74,11.63.87,12.22,7,0,6.69,3.49,1.46,9.88,3.78,7,0-6.11,2.62-10.47,7.85-5.82,7.85-6.69S327.73,155.92,324,141.09Z" style="fill: rgb(38, 50, 56); stroke: rgb(38, 50, 56); stroke-miterlimit: 10; transform-origin: 275.567px 149.785px;" id="elplrgl90hd6g" class="animable"></path><path d="M310.41,238.14a37.75,37.75,0,0,1-3.72,6.16" style="fill: none; stroke: rgb(38, 50, 56); stroke-miterlimit: 10; transform-origin: 308.55px 241.22px;" id="elyaf5w7fsp4" class="animable"></path><path d="M318,200.84s0,16.71-5.06,31.25" style="fill: none; stroke: rgb(38, 50, 56); stroke-miterlimit: 10; transform-origin: 315.47px 216.465px;" id="eljqar0rdvq8" class="animable"></path><path d="M321.08,199.72s2.54,5.07.28,25.11" style="fill: none; stroke: rgb(38, 50, 56); stroke-miterlimit: 10; transform-origin: 321.688px 212.275px;" id="elzo9gqtwz9o9" class="animable"></path><line x1="230.33" y1="234.75" x2="240.68" y2="275.75" style="fill: none; stroke: rgb(38, 50, 56); stroke-miterlimit: 10; transform-origin: 235.505px 255.25px;" id="elwnfrovxygb" class="animable"></line><line x1="227.11" y1="222.01" x2="228.76" y2="228.51" style="fill: none; stroke: rgb(38, 50, 56); stroke-miterlimit: 10; transform-origin: 227.935px 225.26px;" id="elmmlp2i6woga" class="animable"></line><path d="M242.35,272.8s4.23,6.49,5.64,6.77a49.63,49.63,0,0,0,9.32-.57c1.13-.28,9-3.38,9-3.38l4-6.49s-13.27-3.95-14.11-4.23S242.35,272.8,242.35,272.8Z" style="fill: rgb(255, 255, 255); stroke: rgb(38, 50, 56); stroke-miterlimit: 10; transform-origin: 256.33px 272.245px;" id="eli2tjvoak7o" class="animable"></path><path d="M364.81,218.62s-21.16,26.81-20.31,30.19S351,267.15,351,267.15v31s-24-4.23-37.25-7.62-15.24-5.08-15.24-5.08S290,260.1,288.06,258.41s-10.72.84-12.41,1.13-9.6-5.37-10.73-3.39a4.11,4.11,0,0,0-.28,3.67s-10.72,14.11-9.87,16.93,4.51,7.62,4.51,7.62-.84,5.08,1.69,6.77,3.11,2.82,3.11,2.82-1.69,3.67,3.38,5.36,17.78,0,19.47,1.13,20.88,10.72,25.12,14.95S340,331.49,347.6,334.87s26.24,9,28.5,9.88,5.64,1.13,7.9-1.69,7.06-20.32,9.59-37-1.12-39.22-3.1-50.51-12.13-38.37-12.13-38.37" style="fill: rgb(197, 63, 63); stroke: rgb(38, 50, 56); stroke-miterlimit: 10; transform-origin: 324.587px 281.264px;" id="el7aqjnz2ghk3" class="animable"></path><path d="M351,298.19s22.57-3.67,35-.56" style="fill: none; stroke: rgb(38, 50, 56); stroke-miterlimit: 10; transform-origin: 368.5px 297.285px;" id="elp7mnb2a8w18" class="animable"></path><path d="M381.29,279.12c1.34-.47,2.72-.89,4.12-1.24" style="fill: none; stroke: rgb(38, 50, 56); stroke-miterlimit: 10; transform-origin: 383.35px 278.5px;" id="el7ri4p9kovfl" class="animable"></path><path d="M355.22,296.5a76.79,76.79,0,0,1,20.66-15.12" style="fill: none; stroke: rgb(38, 50, 56); stroke-miterlimit: 10; transform-origin: 365.55px 288.94px;" id="elmpk39ypkux" class="animable"></path><path d="M380.61,263.2s-19.46,10.16-24.54,22.58" style="fill: none; stroke: rgb(38, 50, 56); stroke-miterlimit: 10; transform-origin: 368.34px 274.49px;" id="elmli5yrl4al" class="animable"></path><path d="M318.81,291.8c-1.8-.42-3.51-.83-5.07-1.23-13.26-3.38-15.24-5.08-15.24-5.08S290,260.1,288.06,258.41s-10.72.84-12.41,1.13-9.6-5.37-10.72-3.39a4.09,4.09,0,0,0-.29,3.67s-10.72,14.11-9.87,16.93,4.51,7.62,4.51,7.62-.84,5.08,1.69,6.77,3.11,2.82,3.11,2.82-1.69,3.67,3.38,5.36,17.78,0,19.47,1.13c1.48,1,16.14,8.35,22.75,13Z" style="fill: rgb(255, 255, 255); stroke: rgb(38, 50, 56); stroke-miterlimit: 10; transform-origin: 286.766px 284.589px;" id="elbi2rqasm9kq" class="animable"></path><line x1="328.13" y1="294.81" x2="317.41" y2="318.79" style="fill: none; stroke: rgb(38, 50, 56); stroke-miterlimit: 10; transform-origin: 322.77px 306.8px;" id="elcpfw6susdbd" class="animable"></line><path d="M274.52,264.9s-3.11,2-4.23,4.23-8.75,3.38-8.75,3.38-10.72-.56-14.11.85-7.9,6.21-10.16,10.16-5.08-7.62-5.08-9-.28-5.36-.28-5.36l17.21-9.59s6.21-1.42,7.34-1.42S274.52,264.9,274.52,264.9Z" style="fill: rgb(255, 255, 255); stroke: rgb(38, 50, 56); stroke-miterlimit: 10; transform-origin: 253.215px 271.244px;" id="el08fsxysom9qm" class="animable"></path><path d="M274.52,264.9s4.23-.85,6.21,0" style="fill: none; stroke: rgb(38, 50, 56); stroke-miterlimit: 10; transform-origin: 277.625px 264.711px;" id="el8zzhuvl3uhq" class="animable"></path><path d="M194.66,310.33s7.34.28,9.32-.85,7.9-19.19,8.18-23.42-4.23-9.88-7.34-11-8.74-2.82-11.85-4.79-5.08-.28-4.8,3.1,3.39,6.21,5.08,7.06a11.75,11.75,0,0,1,3.39,3.38,31.8,31.8,0,0,1-7.9-.56c-3.67-.85-17.5-6.49-20.32-5.65s-5.64,12.7-5.64,12.7-10.44,1.41-10.44,3.95-1.69,13.55-1.41,16.37.56,7.33,3.38,6.49,3.95-13.83,3.95-13.83l5.93-1.13s-2.54,7.9-3.1,9.88.56,15.24,2.54,15.52,2.82-.85,3.66-4.8a80.4,80.4,0,0,0,1.13-10.44l3.39-7.62,4.8,3.11s-4.52,11-4.24,12.13,3.11,8.75,4.52,9,2.82.85,2.54-2.54-.85-7.34-.85-7.34l2.26-6.77S187.33,315.12,194.66,310.33Z" style="fill: rgb(255, 255, 255); stroke: rgb(38, 50, 56); stroke-miterlimit: 10; transform-origin: 181.536px 299.284px;" id="ele84voa7utbu" class="animable"></path><path d="M196.64,283.8s-5.93,9.88-6.21,12.7,4.52,7.62,6.49,8.18" style="fill: none; stroke: rgb(38, 50, 56); stroke-miterlimit: 10; transform-origin: 193.669px 294.24px;" id="el773o7wkcyao" class="animable"></path><path d="M162.78,290.29s-2.26,7.06-.85,8.75,6.49-3.67,8.47-7.34a50.87,50.87,0,0,0,3.38-8.74" style="fill: none; stroke: rgb(38, 50, 56); stroke-miterlimit: 10; transform-origin: 167.623px 291.16px;" id="el0x59pp9ghhtj" class="animable"></path><path d="M172.37,288.6a62,62,0,0,0,8.75,1.41" style="fill: none; stroke: rgb(38, 50, 56); stroke-miterlimit: 10; transform-origin: 176.745px 289.305px;" id="elf7vrq454owo" class="animable"></path><path d="M164.19,302.14s6.49-.56,8.47-1.41,3.1-2.26,2.82-4" style="fill: none; stroke: rgb(38, 50, 56); stroke-miterlimit: 10; transform-origin: 169.856px 299.435px;" id="el32fvc0xa5pf" class="animable"></path><line x1="261.49" y1="233.95" x2="251.94" y2="245.28" style="fill: none; stroke: rgb(38, 50, 56); stroke-miterlimit: 10; transform-origin: 256.715px 239.615px;" id="eld137wry85x" class="animable"></line><line x1="262.38" y1="239.02" x2="251.64" y2="256.32" style="fill: none; stroke: rgb(38, 50, 56); stroke-miterlimit: 10; transform-origin: 257.01px 247.67px;" id="elvjqpofcoy2d" class="animable"></line><line x1="267.45" y1="240.81" x2="265.07" y2="247.97" style="fill: none; stroke: rgb(38, 50, 56); stroke-miterlimit: 10; transform-origin: 266.26px 244.39px;" id="elo4dlcm9fozi" class="animable"></line></g><g id="freepik--Table--inject-164" class="animable" style="transform-origin: 253.785px 446.85px;"><line x1="488.02" y1="446.85" x2="19.55" y2="446.85" style="fill: none; stroke: rgb(38, 50, 56); stroke-miterlimit: 10; transform-origin: 253.785px 446.85px;" id="el9chhuwuue8" class="animable"></line></g><defs>     <filter id="active" height="200%">         <feMorphology in="SourceAlpha" result="DILATED" operator="dilate" radius="2"></feMorphology>                <feFlood flood-color="#32DFEC" flood-opacity="1" result="PINK"></feFlood>        <feComposite in="PINK" in2="DILATED" operator="in" result="OUTLINE"></feComposite>        <feMerge>            <feMergeNode in="OUTLINE"></feMergeNode>            <feMergeNode in="SourceGraphic"></feMergeNode>        </feMerge>    </filter>    <filter id="hover" height="200%">        <feMorphology in="SourceAlpha" result="DILATED" operator="dilate" radius="2"></feMorphology>                <feFlood flood-color="#ff0000" flood-opacity="0.5" result="PINK"></feFlood>        <feComposite in="PINK" in2="DILATED" operator="in" result="OUTLINE"></feComposite>        <feMerge>            <feMergeNode in="OUTLINE"></feMergeNode>            <feMergeNode in="SourceGraphic"></feMergeNode>        </feMerge>            <feColorMatrix type="matrix" values="0   0   0   0   0                0   1   0   0   0                0   0   0   0   0                0   0   0   1   0 "></feColorMatrix>    </filter></defs></svg>